<?xml version="1.0" standalone="no"?><!DOCTYPE svg PUBLIC "-//W3C//DTD SVG 1.1//EN" "http://www.w3.org/Graphics/SVG/1.1/DTD/svg11.dtd"><svg t="1501749733949" class="icon" style="" viewBox="0 0 1024 1024" version="1.1" xmlns="http://www.w3.org/2000/svg" p-id="25816" xmlns:xlink="http://www.w3.org/1999/xlink" width="24" height="24"><defs><style type="text/css"></style></defs><path d="M331.779917 842.49925c-11.948123-2.87549-26.077935-3.551896-42.388413-2.045589-16.308431 1.51347-30.045293 4.78191-41.209564 9.78997-11.165294 5.016247-16.474206 10.286274-15.926738 15.799848 0.552585 5.52176 6.80294 9.715269 18.754133 12.589736 11.951193 2.87549 26.079982 3.552919 42.387389 2.042519 16.310477-1.51347 30.048363-4.770653 41.213657-9.788947 11.166317-5.012154 16.474206-10.281157 15.923668-15.800871C349.986581 849.570295 343.73418 845.370647 331.779917 842.49925z" p-id="25817"></path><path d="M253.670955 643.35056c21.073968-18.299785 47.096644-31.734772 78.069053-40.304961-22.175045 0.350994-43.250036 5.52483-63.225997 15.509229-15.300474 7.517207-28.770254 17.325597-40.409338 29.434379-17.685801 18.563798-19.060101 38.144762-4.123924 58.735729C222.606449 682.682357 232.503866 661.558248 253.670955 643.35056z" p-id="25818"></path><path d="M793.424042 693.866071c11.914354-13.881149 12.186554-29.345352 0.823761-46.403866-11.362792-16.972557-29.779234-28.154223-55.251372-33.546024-25.382087-5.3918-45.496194-5.966898-60.338227-1.724271 39.675628 3.623527 68.952418 12.857842 87.827301 27.711132C785.268292 654.753261 794.246781 672.738891 793.424042 693.866071z" p-id="25819"></path><path d="M307.995211 640.039141c-16.331967 0-30.259164 8.446369-41.782615 25.328875-11.527544 16.891715-17.287735 37.261649-17.287735 61.113893 0 23.856337 5.759167 44.230364 17.287735 61.113893 11.522428 16.890692 25.450648 25.332968 41.782615 25.332968 16.33299 0 30.262234-8.442276 41.786709-25.332968 11.524474-16.883529 17.286712-37.257555 17.286712-61.113893 0-23.852244-5.762237-44.222177-17.286712-61.113893C338.257445 648.485511 324.328201 640.039141 307.995211 640.039141z" p-id="25820"></path><path d="M587.824431 891.975081c-40.980343 39.610136-86.031399 40.694841-137.727805 3.314489-2.379187-1.720178-5.752004-1.254573-7.535627 1.040702-1.783623 2.295276-1.299599 5.550413 1.078565 7.269567 27.01426 19.531845 52.890604 29.294187 77.474512 29.294187 26.325575 0 51.17145-11.19804 74.330916-33.583886 2.100848-2.029216 2.097778-5.318122-0.00614-7.342222C593.332888 889.940748 589.924255 889.944841 587.824431 891.975081z" p-id="25821"></path><path d="M762.395352 787.594779c11.529591-16.883529 17.288758-37.257555 17.288758-61.113893 0-23.852244-5.759167-44.222177-17.288758-61.113893-11.522428-16.882506-25.449625-25.328875-41.785685-25.328875-16.330944 0-30.258141 8.446369-41.783639 25.328875-11.527544 16.891715-17.289782 37.261649-17.289782 61.113893 0 23.856337 5.762237 44.230364 17.289782 61.113893 11.525498 16.890692 25.452695 25.332968 41.783639 25.332968C736.945727 812.927747 750.872924 804.485471 762.395352 787.594779z" p-id="25822"></path><path d="M828.47228 250.237251c-25.932626-25.279756-53.373605-46.849004-82.33317-64.703651-44.62229-27.487028-92.91211-46.091758-144.867412-55.818283-28.497031-5.390777-58.182121-8.086166-89.064478-8.086166-15.395642 0-30.555923 0.708128-45.493124 2.121314-23.36515 2.034333-45.953611 5.745864-67.762313 11.137665-6.599302 1.680269-13.104459 3.448542-19.516496 5.303796-11.904121 3.51608-23.588231 7.552-35.06768 12.08013L209.156112 25.569352l-36.604686 61.334927 118.850875 90.690512c-1.304715 0.73985-2.598174 1.506307-3.895727 2.25946l-124.852566-76.420507-74.715679 125.273145 102.628402 26.627451C106.738511 340.154143 64.818773 442.003809 64.818773 560.882314c0 18.562774 1.00591 36.725436 3.022847 54.495148 11.272741 98.112552 53.882188 183.451172 127.826294 256.017908 8.745175 8.563026 17.682731 16.71059 26.804483 24.452925 6.724145 8.232498 14.068414 16.197914 22.043039 23.89113 50.241264 48.462758 111.728664 73.036433 182.750207 73.036433l166.997432 0c71.019497 0 132.506896-24.573675 182.753277-73.036433 5.573949-5.377474 10.824533-10.894118 15.788591-16.536628 12.1886-9.868765 24.081465-20.463054 35.668361-31.807427 74.311473-72.922846 117.061113-158.703535 128.23664-257.344113 1.831718-17.324574 2.750647-35.047214 2.750647-53.16792C959.459566 439.613366 915.795091 336.062965 828.47228 250.237251zM264.021697 365.94146c-0.814552 0.653893-1.619894 1.327228-2.430352 1.992377 4.985548-12.798491 10.178827-25.337061 15.582907-37.613666C272.204054 342.221222 267.833513 354.094644 264.021697 365.94146zM594.263074 986.543923 427.265642 986.543923c-69.24713 0-129.195477-23.959691-178.183192-71.211878-6.79987-6.559393-13.117762-13.329587-18.9854-20.293185-31.293727-96.699366-41.581024-195.798385-30.855752-297.297057 13.81668-79.184457 33.031301-151.656025 57.635675-217.429031 1.240247-1.109264 2.486634-2.204202 3.740184-3.285836-20.536732 70.41063-20.569478 139.871631-0.072655 208.381981 68.814272-1.76418 131.352607-3.355421 187.613982-4.773723 9.253758-26.247804 16.355503-57.628512 21.305235-94.135984 3.75451 45.877887 9.757225 77.034491 18.005073 93.471858 53.234435-0.704035 106.151645 0.093121 158.752654 2.388397 15.668865-85.295642 11.452843-166.3067-12.647041-243.028059 34.911114 86.091774 48.063669 167.542854 39.449477 244.353241 48.287773 2.565429 96.347348 6.452969 144.181797 11.666714 2.838651-47.818075-0.780783-97.272417-10.860349-148.357909 16.951067 50.024324 26.802436 100.18884 29.551036 150.48434 4.365424 80.308047-9.318226 161.074535-41.031509 242.301512-2.14178-0.797156-4.568039-1.529843-7.308453-2.189875-11.952216-2.868327-26.078958-3.551896-42.388413-2.039449-16.312524 1.5104-30.04734 4.774747-41.213657 9.785877-11.162224 5.013177-16.47216 10.287297-15.922644 15.801894 0.547469 5.520737 6.800893 9.718339 18.752086 12.591783 11.951193 2.869351 26.075889 3.552919 42.389436 2.039449 12.751419-1.181919 23.905456-3.448542 33.512255-6.77224-9.581216 21.626553-20.424168 43.284829-32.555463 64.974827 1.547239-0.985444 3.091408-1.984191 4.630461-2.993171C709.264271 967.862445 655.387199 986.543923 594.263074 986.543923z" p-id="25823"></path></svg>