<?xml version="1.0" standalone="no"?><!DOCTYPE svg PUBLIC "-//W3C//DTD SVG 1.1//EN" "http://www.w3.org/Graphics/SVG/1.1/DTD/svg11.dtd"><svg t="1501756493519" class="icon" style="" viewBox="0 0 1024 1024" version="1.1" xmlns="http://www.w3.org/2000/svg" p-id="36513" xmlns:xlink="http://www.w3.org/1999/xlink" width="24" height="24"><defs><style type="text/css"></style></defs><path d="M335.84128 383.0528h367.06304c14.12608 0 25.57952-11.16672 25.57952-24.94976 0-13.7728-11.45344-24.93952-25.57952-24.93952H335.84128c-14.12096 0-25.5744 11.16672-25.5744 24.93952 0 13.78304 11.45344 24.94976 25.5744 24.94976z m39.24992-306.32448h288.55296c14.1312 0 25.58976-11.17696 25.58976-24.96 0-13.76768-11.45856-24.93952-25.58976-24.93952H375.0912c-14.12608 0-25.58464 11.17184-25.58464 24.93952 0 13.78304 11.45856 24.96 25.58464 24.96z m327.81312 645.01248H335.84128c-14.12096 0-25.5744 11.17696-25.5744 24.93952 0 13.79328 11.44832 24.93952 25.5744 24.93952h367.06304c14.12608 0 25.57952-11.14624 25.57952-24.93952 0-13.76256-11.45344-24.93952-25.57952-24.93952z m0-194.28352H335.84128c-14.12096 0-25.5744 11.17184-25.5744 24.94976 0 13.7728 11.44832 24.9344 25.5744 24.9344h367.06304c14.12608 0 25.57952-11.1616 25.57952-24.9344 0-13.78304-11.45344-24.94976-25.57952-24.94976z m114.49856-431.84128h-68.63872c-14.12096 0-25.5744 11.17696-25.5744 24.94464 0 13.7728 11.44832 24.94976 25.5744 24.94976h68.6336c44.61056 0 80.91648 35.41504 80.91648 78.93504v644.6336c0 43.53024-36.30592 78.95552-80.91648 78.95552H221.33248c-44.58496 0-80.90112-35.42528-80.90112-78.95552V224.45056c0-43.52512 36.31616-78.94016 80.90112-78.94016h69.54496c14.12608 0 25.57952-11.17184 25.57952-24.94976 0-13.76768-11.45344-24.94464-25.57952-24.94464H221.33248c-72.81152 0-132.04992 57.78944-132.04992 128.83456v644.63872c0 71.03488 59.2384 128.85504 132.04992 128.85504H817.408c72.82176 0 132.06016-57.80992 132.06016-128.85504V224.45056c-0.00512-71.04-59.2384-128.83456-132.06528-128.83456z" p-id="36514" fill="#ffffff"></path></svg>