<?xml version="1.0" standalone="no"?><!DOCTYPE svg PUBLIC "-//W3C//DTD SVG 1.1//EN" "http://www.w3.org/Graphics/SVG/1.1/DTD/svg11.dtd"><svg t="1501754114407" class="icon" style="" viewBox="0 0 1024 1024" version="1.1" xmlns="http://www.w3.org/2000/svg" p-id="27835" xmlns:xlink="http://www.w3.org/1999/xlink" width="16" height="16"><defs><style type="text/css"></style></defs><path d="M977.408 465.856 302.4 465.856c-25.664 0-46.464 30.976-46.464 61.184 0 30.336 20.736 61.824 46.464 61.824l675.072 0c25.664 0 46.464-31.488 46.464-61.824C1023.872 496.896 1003.136 465.856 977.408 465.856z" p-id="27836"></path><path d="M302.4 220.16l675.072 0c25.664 0 46.464-27.84 46.464-62.08s-20.736-62.016-46.464-62.016L302.4 96.064c-25.664 0-46.464 27.776-46.464 62.016C255.936 192.448 276.672 220.16 302.4 220.16z" p-id="27837"></path><path d="M977.408 795.84 302.4 795.84c-25.664 0-46.464 32.448-46.464 62.592 0 30.272 20.736 62.208 46.464 62.208l675.072 0c25.664 0 46.464-31.936 46.464-62.208C1023.872 828.224 1003.136 795.84 977.408 795.84z" p-id="27838"></path><path d="M62.656 158.72m-62.592 0a0.978 0.978 0 1 0 125.184 0 0.978 0.978 0 1 0-125.184 0Z" p-id="27839"></path><path d="M62.656 518.272m-62.592 0a0.978 0.978 0 1 0 125.184 0 0.978 0.978 0 1 0-125.184 0Z" p-id="27840"></path><path d="M62.656 865.344m-62.592 0a0.978 0.978 0 1 0 125.184 0 0.978 0.978 0 1 0-125.184 0Z" p-id="27841"></path></svg>