<?xml version="1.0" standalone="no"?><!DOCTYPE svg PUBLIC "-//W3C//DTD SVG 1.1//EN" "http://www.w3.org/Graphics/SVG/1.1/DTD/svg11.dtd"><svg t="1501756431778" class="icon" style="" viewBox="0 0 1024 1024" version="1.1" xmlns="http://www.w3.org/2000/svg" p-id="35663" xmlns:xlink="http://www.w3.org/1999/xlink" width="24" height="24"><defs><style type="text/css"></style></defs><path d="M132.457711 310.766169c5.094527-15.283582 15.283582-30.567164 20.37811-40.756219 76.41791-122.268657 213.970149-208.875622 366.80597-208.875622 239.442786 0 438.129353 198.686567 438.129353 448.318408s-193.59204 448.318408-438.129353 448.318408c-157.930348 0-295.482587-86.606965-371.900497-208.875622-10.189055-15.283582-15.283582-25.472637-15.283583-25.472636-10.189055-15.283582-25.472637-20.378109-40.756218-15.283583-15.283582 5.094527-20.378109 25.472637-15.283583 40.756219l15.283583 30.567165c86.606965 147.741294 244.537313 244.537313 427.940298 244.537313 275.104478 0 499.263682-229.253731 499.263682-509.452736S799.840796 0 524.736318 0C346.427861 0 188.497512 96.79602 96.79602 239.442786c0 5.094527-5.094527 15.283582-10.189055 25.472637l-20.378109-106.985075c0-15.283582-15.283582-30.567164-35.661692-25.472637-15.283582 5.094527-25.472637 20.378109-25.472637 35.661692l25.472637 157.930348c5.094527 35.661692 35.661692 56.039801 71.323383 50.945274l152.835821-25.472637c15.283582-5.094527 30.567164-20.378109 25.472637-35.661691 0-15.283582-15.283582-25.472637-35.661692-25.472637l-112.079602 20.378109z" p-id="35664" fill="#888888"></path><path d="M524.736318 224.159204c0-15.283582-15.283582-30.567164-30.567164-30.567164-20.378109 0-30.567164 10.189055-30.567164 30.567164V509.452736c0 35.661692 30.567164 66.228856 61.134328 66.228856h280.199005c15.283582 0 30.567164-15.283582 30.567165-30.567164s-15.283582-30.567164-30.567165-30.567164h-249.63184c-15.283582 0-30.567164-15.283582-30.567165-30.567164V224.159204z" p-id="35665" fill="#888888"></path></svg>