<?xml version="1.0" standalone="no"?><!DOCTYPE svg PUBLIC "-//W3C//DTD SVG 1.1//EN" "http://www.w3.org/Graphics/SVG/1.1/DTD/svg11.dtd"><svg t="1501757426339" class="icon" style="" viewBox="0 0 1024 1024" version="1.1" xmlns="http://www.w3.org/2000/svg" p-id="41914" xmlns:xlink="http://www.w3.org/1999/xlink" width="24" height="24"><defs><style type="text/css"></style></defs><path d="M512 933.875c-205.664 0-369.141-163.477-369.141-369.141 0-147.656 84.375-274.219 210.938-332.227v121.289c-63.281 47.461-105.469 126.563-105.469 210.938 0 147.656 116.016 263.672 263.672 263.672s263.672-116.016 263.672-263.672c0-84.375-42.188-163.477-105.469-210.938v-121.289c126.563 58.008 210.938 184.57 210.938 332.227 0 205.664-163.477 369.141-369.141 369.141z" p-id="41915" fill="#888888"></path><path d="M564.734 459.266c0 31.641-21.094 52.734-52.734 52.734s-52.734-21.094-52.734-52.734v-316.406c0-31.641 21.094-52.734 52.734-52.734s52.734 21.094 52.734 52.734v316.406z" p-id="41916" fill="#888888"></path></svg>