<?xml version="1.0" standalone="no"?><!DOCTYPE svg PUBLIC "-//W3C//DTD SVG 1.1//EN" "http://www.w3.org/Graphics/SVG/1.1/DTD/svg11.dtd"><svg t="1501756917074" class="icon" style="" viewBox="0 0 1000 1000" version="1.1" xmlns="http://www.w3.org/2000/svg" p-id="39283" xmlns:xlink="http://www.w3.org/1999/xlink" width="24" height="24"><defs><style type="text/css"></style></defs><path d="M77.6176 309.1584h262.0330849249028V47.13504244122487h-262.0330849249028V309.1583906111656zM121.2897 90.8054h174.68872328326856v174.6825652207803h-174.68872328326856V90.80543391580511zM383.3218 309.1584h262.0330849249028V47.13504244122487h-262.0330849249028V309.1583906111656zM426.995 90.8054h174.68872328326856v174.6825652207803h-174.68872328326856V90.80543391580511zM689.0271 47.135v262.0233481699408h262.0330849249028V47.13504244122487H689.0270897438332zM907.388 265.488h-174.68872328326856V90.80543391580511h174.68872328326856V265.48799913658536zM77.6176 614.8511h262.0330849249028v-262.0223488474814h-262.0330849249028V614.8511309332273zM121.2897 396.4992h174.68872328326856v174.68156589832094h-174.68872328326856V396.4991735603261zM383.3218 614.8511h262.0330849249028v-262.0223488474814h-262.0330849249028V614.8511309332273zM426.995 396.4992h174.68872328326856v174.68156589832094h-174.68872328326856V396.4991735603261zM689.0271 614.8511h262.0330849249028v-262.0223488474814h-262.0330849249028V614.8511309332273zM732.7003 396.4992h174.68872328326856v174.68156589832094h-174.68872328326856V396.4991735603261zM383.3218 920.5439h262.0330849249028v-262.0223488474814h-262.0330849249028V920.5438712552889zM426.995 702.1919h174.68872328326856v174.68156589832094h-174.68872328326856V702.1919138823877z" p-id="39284" fill="#ffffff"></path></svg>