<?xml version="1.0" standalone="no"?><!DOCTYPE svg PUBLIC "-//W3C//DTD SVG 1.1//EN" "http://www.w3.org/Graphics/SVG/1.1/DTD/svg11.dtd"><svg t="1501756222941" class="icon" style="" viewBox="0 0 1024 1024" version="1.1" xmlns="http://www.w3.org/2000/svg" p-id="33185" xmlns:xlink="http://www.w3.org/1999/xlink" width="24" height="24"><defs><style type="text/css"></style></defs><path d="M99.790105 1004.945057l388.052562 0L487.842667 616.802187 99.790105 616.802187 99.790105 1004.945057zM164.450481 681.462563l258.731811 0 0 258.731811L164.450481 940.194373 164.450481 681.462563zM19.416174 293.410001l274.445366 274.445366 274.445366-274.445366L293.86154 18.964635 19.416174 293.410001zM617.253726 99.338566l0 388.052562 388.052562 0L1005.306288 99.338566 617.253726 99.338566zM940.645912 422.730752 681.914102 422.730752 681.914102 163.998942l258.731811 0L940.645912 422.730752zM617.253726 1004.945057l388.052562 0L1005.306288 616.802187 617.253726 616.802187 617.253726 1004.945057zM681.914102 681.462563l258.731811 0 0 258.731811L681.914102 940.194373 681.914102 681.462563z" p-id="33186" fill="#888888"></path></svg>