<?xml version="1.0" standalone="no"?><!DOCTYPE svg PUBLIC "-//W3C//DTD SVG 1.1//EN" "http://www.w3.org/Graphics/SVG/1.1/DTD/svg11.dtd"><svg t="1501754724617" class="icon" style="" viewBox="0 0 1024 1024" version="1.1" xmlns="http://www.w3.org/2000/svg" p-id="29490" xmlns:xlink="http://www.w3.org/1999/xlink" width="24" height="24"><defs><style type="text/css"></style></defs><path d="M972.537477 405.700616l-98.119192-19.641084c-4.925765-14.177742-10.716503-27.939166-17.135088-41.253282l55.522642-83.313603c16.926255-25.37254 13.55259-59.194061-8.000326-80.775272l-61.582842-61.553201c-12.357527-12.358874-28.715216-18.74647-45.253446-18.74647-12.298245 0-24.657119 3.552856-35.493533 10.747491l-83.312256 55.550935c-13.343757-6.477866-27.07554-12.238963-41.25463-17.163381l-19.641084-98.089551C612.297792 21.523276 586.029291 0 555.522152 0l-87.073945 0c-30.477498 0-56.776987 21.523276-62.746918 51.463197l-19.642431 98.089551c-14.17909 4.924418-27.940513 10.716503-41.253282 17.163381l-83.313603-55.550935c-10.835066-7.194635-23.19394-10.747491-35.462544-10.747491-16.536882 0-32.92556 6.387596-45.283086 18.74647l-61.582842 61.553201c-21.552917 21.582558-24.925234 55.402731-8.000326 80.775272l55.552283 83.313603c-6.477866 13.34241-12.209322 27.103834-17.163381 41.284271l-98.089551 19.611443C21.522602 411.671893 0.000674 437.970036 0.000674 468.447533l0 87.073945c0 30.508486 21.521929 56.776987 51.46185 62.746918L149.552075 637.910828c4.955406 14.20873 10.716503 27.940513 17.163381 41.253282l-55.552283 83.313603c-16.924907 25.402181-13.55259 59.194061 8.000326 80.746978l61.582842 61.581494c12.357527 12.388515 28.746204 18.74647 45.283086 18.74647 12.268604 0 24.657119-3.521868 35.462544-10.747491l83.313603-55.550935c13.343757 6.507507 27.105181 12.238963 41.284271 17.163381l19.611443 98.119192c5.96993 29.91028 32.26942 51.463197 62.746918 51.463197l87.073945 0c30.507139 0 56.77564-21.552917 62.74557-51.463197l19.641084-98.119192c14.210078-4.924418 27.940513-10.716503 41.25463-17.163381l83.312256 55.550935c10.866055 7.224276 23.195288 10.747491 35.493533 10.747491 16.536882 0 32.895919-6.357956 45.253446-18.74647l61.582842-61.581494c21.551569-21.552917 24.925234-55.34345 8.000326-80.746978l-55.522642-83.313603c6.448225-13.34241 12.209322-27.074193 17.135088-41.284271l98.119192-19.611443c29.908933-5.971278 51.46185-32.239779 51.46185-62.746918l0-87.073945C1023.999326 437.970036 1002.44641 411.671893 972.537477 405.700616zM861.850578 575.16391c-22.207709 4.417829-40.41795 20.297224-47.8807 41.700589-4.118726 11.821297-8.89494 23.28421-14.297653 34.418379-9.879824 20.388841-8.2388 44.507036 4.3572 63.403057l55.522642 83.283963-61.581494 61.581494-83.282615-55.522642c-10.686862-7.134006-23.075377-10.775785-35.521826-10.775785-9.493146 0-19.014585 2.148959-27.851591 6.387596-11.104528 5.373072-22.567441 10.208567-34.418379 14.358282-21.403365 7.433109-37.28276 25.640655-41.731577 47.851059l-19.641084 98.148833-87.073945 0-19.61279-98.148833c-4.44747-22.209057-20.328212-40.41795-41.731577-47.851059-11.790309-4.149715-23.253222-8.925928-34.387391-14.328641-8.835658-4.269625-18.388086-6.418584-27.910872-6.418584-12.447796 0-24.80667 3.641779-35.492185 10.775785l-83.313603 55.522642-61.581494-61.581494 55.521294-83.283963c12.567707-18.894674 14.238371-42.984576 4.388188-63.372069-5.373072-11.104528-10.208567-22.567441-14.328641-34.418379-7.433109-21.403365-25.671643-37.284107-47.8807-41.731577l-98.089551-19.642431-0.029641-87.073945 98.119192-19.61279c22.209057-4.417829 40.447591-20.328212 47.8807-41.731577 4.120074-11.791656 8.896287-23.282863 14.299-34.387391 9.909464-20.417135 8.268441-44.538024-4.358548-63.404405l-55.521294-83.312256 61.581494-61.582842 83.313603 55.522642c10.686862 7.134006 23.044389 10.747491 35.492185 10.747491 9.491798 0 19.014585-2.119319 27.879884-6.359303 11.074888-5.373072 22.5378-10.208567 34.387391-14.328641 21.403365-7.433109 37.284107-25.671643 41.731577-47.8807l19.642431-98.089551 87.073945-0.029641 19.611443 98.119192c4.448817 22.209057 20.329559 40.447591 41.732925 47.8807 11.81995 4.120074 23.282863 8.896287 34.417032 14.297653 8.837006 4.269625 18.358445 6.388944 27.881231 6.388944 12.446449 0 24.836311-3.613485 35.521826-10.747491l83.282615-55.522642 61.581494 61.582842-55.522642 83.312256c-12.56636 18.866381-14.237024 42.956282-4.388188 63.373417 5.373072 11.074888 10.209915 22.5378 14.328641 34.387391 7.46275 21.403365 25.672991 37.284107 47.8807 41.731577l98.089551 19.642431 0.060629 87.073945L861.850578 575.16391zM512 288.000968c-123.701913 0-223.999705 100.297792-223.999705 223.999705 0 123.670925 100.297792 223.999705 223.999705 223.999705 123.672272 0 223.999705-100.32878 223.999705-223.999705C735.999705 388.298761 635.672272 288.000968 512 288.000968zM512 707.970943c-108.238837 0-195.999911-87.762421-195.999911-195.97027 0-108.238837 87.761074-196.001258 195.999911-196.001258 108.209196 0 195.999911 87.762421 195.999911 196.001258C707.999911 620.208523 620.209196 707.970943 512 707.970943zM512 384.000842c-70.745897 0-127.999832 57.283576-127.999832 127.999832 0 70.686615 57.253935 127.999832 127.999832 127.999832 70.716256 0 127.998484-57.313217 127.998484-127.999832C639.999832 441.283071 582.716256 384.000842 512 384.000842zM512 608.000547c-53.015298 0-95.999874-43.015564-95.999874-95.999874 0-53.015298 42.984576-95.999874 95.999874-95.999874 52.985657 0 95.999874 42.984576 95.999874 95.999874C608.001221 564.984984 564.985657 608.000547 512 608.000547z" p-id="29491" fill="#ffffff"></path></svg>