<?xml version="1.0" standalone="no"?><!DOCTYPE svg PUBLIC "-//W3C//DTD SVG 1.1//EN" "http://www.w3.org/Graphics/SVG/1.1/DTD/svg11.dtd"><svg t="1501756367341" class="icon" style="" viewBox="0 0 1024 1024" version="1.1" xmlns="http://www.w3.org/2000/svg" p-id="34840" xmlns:xlink="http://www.w3.org/1999/xlink" width="24" height="24"><defs><style type="text/css"></style></defs><path d="M370.848 335.552c0-44.432-11.76-81.36-35.296-110.768-23.52-29.408-52.656-53.92-87.248-73.52-34.688-19.6-72.256-35.952-112.72-49.008C95.04 89.184 57.792 76.128 23.84 63.056 18.592 61.744 16 58.48 16 53.248c0-7.84 3.92-11.76 11.76-11.76 121.552 0 218.864 6.864 292.112 20.592 73.136 13.728 129.008 33.328 167.632 58.816 38.496 25.488 63.984 56.528 76.448 93.12 12.352 36.592 18.624 77.104 18.624 121.552l143.104 0L476.72 649.232 227.728 335.552 370.848 335.552zM1008 166.96l0 815.568L135.584 982.528 135.584 496.32l82.336 103.904 0 298 707.728 0L925.648 249.296l-162.72 0 0-82.336L1008 166.96z" p-id="34841" fill="#888888"></path></svg>