<?xml version="1.0" standalone="no"?><!DOCTYPE svg PUBLIC "-//W3C//DTD SVG 1.1//EN" "http://www.w3.org/Graphics/SVG/1.1/DTD/svg11.dtd"><svg t="1501749649890" class="icon" style="" viewBox="0 0 1024 1024" version="1.1" xmlns="http://www.w3.org/2000/svg" p-id="24897" xmlns:xlink="http://www.w3.org/1999/xlink" width="24" height="24"><defs><style type="text/css"></style></defs><path d="M704 1024 320 1024c-96 0-172.8-76.8-172.8-172.8L147.2 608C147.2 512 224 435.2 320 435.2L704 435.2c96 0 172.8 76.8 172.8 172.8l0 243.2C876.8 947.2 800 1024 704 1024zM320 505.6c-57.6 0-102.4 44.8-102.4 102.4l0 243.2c0 57.6 44.8 102.4 102.4 102.4L704 953.6c57.6 0 102.4-44.8 102.4-102.4L806.4 608c0-57.6-44.8-102.4-102.4-102.4L320 505.6z" p-id="24898"></path><path d="M230.4 544l0-256C230.4 128 358.4 0 512 0c153.6 0 281.6 128 281.6 281.6l0 256-51.2-25.6C729.6 512 716.8 505.6 704 505.6L320 505.6C307.2 505.6 294.4 512 281.6 518.4L230.4 544zM512 70.4c-115.2 0-211.2 96-211.2 211.2l0 153.6c6.4 0 12.8 0 19.2 0L704 435.2c6.4 0 12.8 0 19.2 0L723.2 281.6C723.2 166.4 627.2 70.4 512 70.4z" p-id="24899"></path><path d="M512 864c-76.8 0-134.4-57.6-134.4-134.4 0-76.8 57.6-134.4 134.4-134.4 70.4 0 134.4 57.6 134.4 134.4C646.4 800 588.8 864 512 864zM512 672c-32 0-57.6 25.6-57.6 57.6s25.6 57.6 57.6 57.6c32 0 57.6-25.6 57.6-57.6S544 672 512 672z" p-id="24900"></path></svg>