<?xml version="1.0" standalone="no"?><!DOCTYPE svg PUBLIC "-//W3C//DTD SVG 1.1//EN" "http://www.w3.org/Graphics/SVG/1.1/DTD/svg11.dtd"><svg t="1503022312709" class="icon" style="" viewBox="0 0 1024 1024" version="1.1" xmlns="http://www.w3.org/2000/svg" p-id="1666" xmlns:xlink="http://www.w3.org/1999/xlink" width="24" height="24"><defs><style type="text/css"></style></defs><path d="M316.015374 244.48934c-20.629853-20.056801-31.517831-53.866838-31.517831-96.272647 0-76.788897 36.675294-122.05894 99.709933-122.05894 62.46261 0 99.137905 44.698015 99.137905 122.05894 0 42.405809-10.887978 76.215846-31.517831 96.272647-17.191544 16.618493-40.686654 25.787316-67.620074 25.787316C356.702028 270.276656 333.206918 261.107833 316.015374 244.48934zM322.891991 148.216693c0 56.159044 22.349007 88.249927 61.316507 88.249927 38.394449 0 60.743456-32.090882 60.743456-88.249927 0-56.732096-21.775956-88.249927-60.743456-88.249927C344.667947 59.96779 322.891991 92.057649 322.891991 148.216693zM673.598468 22.719444l24.068162 18.337647L350.398462 480.585523l-24.068162-18.910699L673.598468 22.719444zM572.169381 451.932949c-20.629853-20.056801-31.517831-53.866838-31.517831-96.272647 0-76.788897 36.675294-122.05894 99.709933-122.05894s99.136881 44.698015 99.136881 122.631992c0 41.832757-10.887978 75.641771-31.517831 95.699596-17.191544 16.618493-40.686654 25.787316-67.61905 25.787316C612.856036 477.720266 589.360925 469.124494 572.169381 451.932949zM579.045999 355.661326c0 56.159044 22.349007 88.249927 61.316507 88.249927 38.394449 0 60.742433-32.090882 60.742433-88.249927 0-56.732096-21.775956-88.249927-60.742433-88.249927C600.821955 267.411399 579.045999 299.502281 579.045999 355.661326z" p-id="1667" fill="#707070"></path></svg>