<?xml version="1.0" standalone="no"?><!DOCTYPE svg PUBLIC "-//W3C//DTD SVG 1.1//EN" "http://www.w3.org/Graphics/SVG/1.1/DTD/svg11.dtd"><svg t="1501755928915" class="icon" style="" viewBox="0 0 1024 1024" version="1.1" xmlns="http://www.w3.org/2000/svg" p-id="30722" xmlns:xlink="http://www.w3.org/1999/xlink" width="24" height="24"><defs><style type="text/css"></style></defs><path d="M511.220241 14.147208 76.345806 244.019643l434.874435 229.873458 434.875458-229.873458L511.220241 14.147208zM295.316959 244.019643l215.903282-114.125247 215.903282 114.125247L511.220241 358.145913 295.316959 244.019643z" p-id="30723" fill="#888888"></path><path d="M54.647621 796.694017l436.459536 218.229257L491.107157 524.620435 54.647621 306.390155 54.647621 796.694017zM156.978241 471.965192l231.798297 115.898637 0 261.485433L156.978241 733.450624 156.978241 471.965192z" p-id="30724" fill="#888888"></path><path d="M529.359366 524.620435l0 490.302839 436.459536-218.229257L965.818903 306.390155 529.359366 524.620435zM863.48726 733.450624 631.689986 849.349261l0-261.485433 231.798297-115.898637L863.488283 733.450624z" p-id="30725" fill="#888888"></path></svg>