<?xml version="1.0" standalone="no"?><!DOCTYPE svg PUBLIC "-//W3C//DTD SVG 1.1//EN" "http://www.w3.org/Graphics/SVG/1.1/DTD/svg11.dtd"><svg t="1502102515781" class="icon" style="" viewBox="0 0 1024 1024" version="1.1" xmlns="http://www.w3.org/2000/svg" p-id="2179" xmlns:xlink="http://www.w3.org/1999/xlink" width="24" height="24"><defs><style type="text/css"></style></defs><path d="M841.940992 9.213952 182.13888 9.213952c-55.578624 0-100.800512 45.23008-100.800512 100.804608l0 879.72864c0 15.179776 12.304384 27.4944 27.490304 27.4944 1.542144 0 3.04128-0.157696 4.507648-0.39936 1.542144 0.260096 3.104768 0.39936 4.677632 0.39936 5.951488 0 11.943936-1.931264 16.990208-5.888l113.188864-89.14944 113.186816 89.14944c9.977856 7.835648 24.03328 7.835648 34.025472 0l117.446656-92.499968L626.688 1008.508928c9.990144 7.839744 24.03328 7.839744 34.02752 0l113.096704-89.081856 115.263488 90.7776c5.39648 4.253696 11.866112 6.139904 18.21696 5.855232 2.51904 0.763904 5.187584 1.181696 7.954432 1.181696 15.194112 0 27.4944-12.314624 27.4944-27.490304L942.741504 110.014464C942.741504 54.439936 897.52576 9.213952 841.940992 9.213952L841.940992 9.213952zM248.82176 177.311744c0-9.234432 7.489536-16.717824 16.72192-16.717824L611.5328 160.59392c9.238528 0 16.72192 7.483392 16.72192 16.717824l0 27.009024c0 9.238528-7.483392 16.72192-16.72192 16.72192L265.54368 221.042688c-9.234432 0-16.72192-7.483392-16.72192-16.72192L248.82176 177.311744 248.82176 177.311744zM762.662912 687.937536c0 9.234432-7.483392 16.72192-16.717824 16.72192L265.54368 704.659456c-9.234432 0-16.72192-7.489536-16.72192-16.72192L248.82176 660.93056c0-9.238528 7.489536-16.72192 16.72192-16.72192l480.397312 0c9.234432 0 16.72192 7.483392 16.72192 16.72192L762.662912 687.937536 762.662912 687.937536zM762.662912 526.731264c0 9.238528-7.483392 16.72192-16.717824 16.72192L265.54368 543.453184c-9.234432 0-16.72192-7.483392-16.72192-16.72192l0-27.009024c0-9.234432 7.489536-16.72192 16.72192-16.72192l480.397312 0c9.234432 0 16.72192 7.489536 16.72192 16.72192L762.662912 526.731264 762.662912 526.731264zM762.662912 365.531136c0 9.234432-7.483392 16.717824-16.717824 16.717824L265.54368 382.24896c-9.234432 0-16.72192-7.483392-16.72192-16.717824l0-27.01312c0-9.234432 7.489536-16.717824 16.72192-16.717824l480.397312 0c9.234432 0 16.72192 7.483392 16.72192 16.717824L762.662912 365.531136 762.662912 365.531136zM762.662912 365.531136" p-id="2180" fill="#888888"></path></svg>