<?xml version="1.0" standalone="no"?><!DOCTYPE svg PUBLIC "-//W3C//DTD SVG 1.1//EN" "http://www.w3.org/Graphics/SVG/1.1/DTD/svg11.dtd"><svg t="1501760040797" class="icon" style="" viewBox="0 0 1024 1024" version="1.1" xmlns="http://www.w3.org/2000/svg" p-id="44656" xmlns:xlink="http://www.w3.org/1999/xlink" width="28" height="28"><defs><style type="text/css"></style></defs><path d="M152.26368 129.536A511.488 511.488 0 0 1 376.349013 0c31.146667 40.789333 80.384 67.157333 135.68 67.157333 55.296 0 104.533333-26.368 135.68-67.157333a511.488 511.488 0 0 1 224.085334 129.536 170.410667 170.410667 0 0 0 135.68 234.922667 512.853333 512.853333 0 0 1 0 258.730666 170.410667 170.410667 0 0 0-125.952 83.968 170.410667 170.410667 0 0 0-9.728 151.04 511.488 511.488 0 0 1-224.085334 129.450667A170.410667 170.410667 0 0 0 512.029013 920.490667c-55.296 0-104.533333 26.368-135.68 67.157333a511.488 511.488 0 0 1-224.085333-129.536 170.410667 170.410667 0 0 0-135.68-234.922667 512.853333 512.853333 0 0 1 0-258.730666 170.410667 170.410667 0 0 0 125.952-83.968 170.410667 170.410667 0 0 0 9.728-151.04zM512.029013 664.490667a170.666667 170.666667 0 1 0 0-341.333334 170.666667 170.666667 0 0 0 0 341.333334z" fill="#ffffff" p-id="44657"></path></svg>